<mxfile host="app.diagrams.net" modified="2024-01-23T05:33:12.655Z" agent="Mozilla/5.0 (Windows NT 10.0; Win64; x64) AppleWebKit/537.36 (KHTML, like Gecko) Chrome/120.0.0.0 Safari/537.36" etag="53dpUoTz-Wt0A0vzPGzQ" version="22.1.21" type="device">
  <diagram name="Page-1" id="Lk_x8vjg-FTsvstP_IFl">
    <mxGraphModel dx="1290" dy="569" grid="1" gridSize="10" guides="1" tooltips="1" connect="1" arrows="1" fold="1" page="1" pageScale="1" pageWidth="850" pageHeight="1100" math="0" shadow="0">
      <root>
        <mxCell id="0" />
        <mxCell id="1" parent="0" />
        <mxCell id="lIA2qxOWrhkQfhuLzxUu-1" value="VICTIM" style="rounded=0;whiteSpace=wrap;html=1;" vertex="1" parent="1">
          <mxGeometry x="190" y="350" width="110" height="40" as="geometry" />
        </mxCell>
        <mxCell id="lIA2qxOWrhkQfhuLzxUu-2" value="CRIME" style="rounded=0;whiteSpace=wrap;html=1;" vertex="1" parent="1">
          <mxGeometry x="320" y="180" width="80" height="30" as="geometry" />
        </mxCell>
        <mxCell id="lIA2qxOWrhkQfhuLzxUu-3" value="SUSPECT" style="rounded=0;whiteSpace=wrap;html=1;" vertex="1" parent="1">
          <mxGeometry x="425" y="350" width="100" height="40" as="geometry" />
        </mxCell>
        <mxCell id="lIA2qxOWrhkQfhuLzxUu-4" value="NAME" style="ellipse;whiteSpace=wrap;html=1;" vertex="1" parent="1">
          <mxGeometry x="540" y="300" width="90" height="30" as="geometry" />
        </mxCell>
        <mxCell id="lIA2qxOWrhkQfhuLzxUu-5" value="&lt;b&gt;&lt;u&gt;SUSPECTID&lt;/u&gt;&lt;/b&gt;" style="ellipse;whiteSpace=wrap;html=1;" vertex="1" parent="1">
          <mxGeometry x="450" y="275" width="80" height="50" as="geometry" />
        </mxCell>
        <mxCell id="lIA2qxOWrhkQfhuLzxUu-6" value="DESCRIPTION" style="ellipse;whiteSpace=wrap;html=1;" vertex="1" parent="1">
          <mxGeometry x="590" y="340" width="90" height="40" as="geometry" />
        </mxCell>
        <mxCell id="lIA2qxOWrhkQfhuLzxUu-7" value="INJURIES" style="ellipse;whiteSpace=wrap;html=1;" vertex="1" parent="1">
          <mxGeometry x="150" y="400" width="100" height="50" as="geometry" />
        </mxCell>
        <mxCell id="lIA2qxOWrhkQfhuLzxUu-8" value="CONTACTINFO" style="ellipse;whiteSpace=wrap;html=1;" vertex="1" parent="1">
          <mxGeometry x="80" y="350" width="95" height="40" as="geometry" />
        </mxCell>
        <mxCell id="lIA2qxOWrhkQfhuLzxUu-9" value="NAME" style="ellipse;whiteSpace=wrap;html=1;" vertex="1" parent="1">
          <mxGeometry x="90" y="310" width="95" height="30" as="geometry" />
        </mxCell>
        <mxCell id="lIA2qxOWrhkQfhuLzxUu-10" value="&lt;b&gt;&lt;u&gt;VICTIMID&lt;/u&gt;&lt;/b&gt;" style="ellipse;whiteSpace=wrap;html=1;" vertex="1" parent="1">
          <mxGeometry x="185" y="280" width="85" height="40" as="geometry" />
        </mxCell>
        <mxCell id="lIA2qxOWrhkQfhuLzxUu-11" value="STATUS" style="ellipse;whiteSpace=wrap;html=1;" vertex="1" parent="1">
          <mxGeometry x="200" y="185" width="70" height="40" as="geometry" />
        </mxCell>
        <mxCell id="lIA2qxOWrhkQfhuLzxUu-12" value="INCIDENTTYPE" style="ellipse;whiteSpace=wrap;html=1;" vertex="1" parent="1">
          <mxGeometry x="190" y="120" width="100" height="50" as="geometry" />
        </mxCell>
        <mxCell id="lIA2qxOWrhkQfhuLzxUu-13" value="DESCRIPTION" style="ellipse;whiteSpace=wrap;html=1;" vertex="1" parent="1">
          <mxGeometry x="440" y="135" width="90" height="50" as="geometry" />
        </mxCell>
        <mxCell id="lIA2qxOWrhkQfhuLzxUu-14" value="LOCATION" style="ellipse;whiteSpace=wrap;html=1;" vertex="1" parent="1">
          <mxGeometry x="425" y="80" width="80" height="40" as="geometry" />
        </mxCell>
        <mxCell id="lIA2qxOWrhkQfhuLzxUu-15" value="&lt;u&gt;&lt;b&gt;CRIMEID&lt;/b&gt;&lt;/u&gt;" style="ellipse;whiteSpace=wrap;html=1;" vertex="1" parent="1">
          <mxGeometry x="240" y="60" width="90" height="60" as="geometry" />
        </mxCell>
        <mxCell id="lIA2qxOWrhkQfhuLzxUu-16" value="INCIDENTDATE" style="ellipse;whiteSpace=wrap;html=1;" vertex="1" parent="1">
          <mxGeometry x="330" y="50" width="110" height="40" as="geometry" />
        </mxCell>
        <mxCell id="lIA2qxOWrhkQfhuLzxUu-17" value="" style="endArrow=none;html=1;rounded=0;exitX=0.75;exitY=0;exitDx=0;exitDy=0;entryX=0.5;entryY=1;entryDx=0;entryDy=0;" edge="1" parent="1" source="lIA2qxOWrhkQfhuLzxUu-2" target="lIA2qxOWrhkQfhuLzxUu-16">
          <mxGeometry width="50" height="50" relative="1" as="geometry">
            <mxPoint x="340" y="140" as="sourcePoint" />
            <mxPoint x="390" y="90" as="targetPoint" />
          </mxGeometry>
        </mxCell>
        <mxCell id="lIA2qxOWrhkQfhuLzxUu-21" value="" style="endArrow=none;html=1;rounded=0;entryX=0;entryY=1;entryDx=0;entryDy=0;exitX=1;exitY=0;exitDx=0;exitDy=0;" edge="1" parent="1" source="lIA2qxOWrhkQfhuLzxUu-2" target="lIA2qxOWrhkQfhuLzxUu-14">
          <mxGeometry width="50" height="50" relative="1" as="geometry">
            <mxPoint x="400" y="320" as="sourcePoint" />
            <mxPoint x="450" y="270" as="targetPoint" />
          </mxGeometry>
        </mxCell>
        <mxCell id="lIA2qxOWrhkQfhuLzxUu-22" value="" style="endArrow=none;html=1;rounded=0;entryX=0;entryY=1;entryDx=0;entryDy=0;exitX=1;exitY=0.5;exitDx=0;exitDy=0;" edge="1" parent="1" source="lIA2qxOWrhkQfhuLzxUu-2" target="lIA2qxOWrhkQfhuLzxUu-13">
          <mxGeometry width="50" height="50" relative="1" as="geometry">
            <mxPoint x="400" y="320" as="sourcePoint" />
            <mxPoint x="450" y="270" as="targetPoint" />
          </mxGeometry>
        </mxCell>
        <mxCell id="lIA2qxOWrhkQfhuLzxUu-23" value="" style="endArrow=none;html=1;rounded=0;entryX=1;entryY=1;entryDx=0;entryDy=0;exitX=0.5;exitY=0;exitDx=0;exitDy=0;" edge="1" parent="1" source="lIA2qxOWrhkQfhuLzxUu-2" target="lIA2qxOWrhkQfhuLzxUu-15">
          <mxGeometry width="50" height="50" relative="1" as="geometry">
            <mxPoint x="373.18" y="418.79" as="sourcePoint" />
            <mxPoint x="289.99980515339456" y="210.0032034355964" as="targetPoint" />
          </mxGeometry>
        </mxCell>
        <mxCell id="lIA2qxOWrhkQfhuLzxUu-24" value="" style="endArrow=none;html=1;rounded=0;entryX=1;entryY=1;entryDx=0;entryDy=0;exitX=0.25;exitY=0;exitDx=0;exitDy=0;" edge="1" parent="1" source="lIA2qxOWrhkQfhuLzxUu-2" target="lIA2qxOWrhkQfhuLzxUu-12">
          <mxGeometry width="50" height="50" relative="1" as="geometry">
            <mxPoint x="400" y="320" as="sourcePoint" />
            <mxPoint x="450" y="270" as="targetPoint" />
          </mxGeometry>
        </mxCell>
        <mxCell id="lIA2qxOWrhkQfhuLzxUu-25" value="" style="endArrow=none;html=1;rounded=0;entryX=1;entryY=0.5;entryDx=0;entryDy=0;exitX=0;exitY=0.25;exitDx=0;exitDy=0;" edge="1" parent="1" source="lIA2qxOWrhkQfhuLzxUu-2" target="lIA2qxOWrhkQfhuLzxUu-11">
          <mxGeometry width="50" height="50" relative="1" as="geometry">
            <mxPoint x="400" y="320" as="sourcePoint" />
            <mxPoint x="450" y="270" as="targetPoint" />
          </mxGeometry>
        </mxCell>
        <mxCell id="lIA2qxOWrhkQfhuLzxUu-26" value="&lt;b&gt;CRIMEID&lt;/b&gt;" style="ellipse;whiteSpace=wrap;html=1;align=center;dashed=1;" vertex="1" parent="1">
          <mxGeometry x="260" y="410" width="100" height="40" as="geometry" />
        </mxCell>
        <mxCell id="lIA2qxOWrhkQfhuLzxUu-27" value="" style="endArrow=none;html=1;rounded=0;entryX=0.5;entryY=1;entryDx=0;entryDy=0;exitX=1;exitY=0;exitDx=0;exitDy=0;" edge="1" parent="1" source="lIA2qxOWrhkQfhuLzxUu-1" target="lIA2qxOWrhkQfhuLzxUu-2">
          <mxGeometry width="50" height="50" relative="1" as="geometry">
            <mxPoint x="400" y="320" as="sourcePoint" />
            <mxPoint x="450" y="270" as="targetPoint" />
          </mxGeometry>
        </mxCell>
        <mxCell id="lIA2qxOWrhkQfhuLzxUu-28" value="" style="endArrow=none;html=1;rounded=0;entryX=0.5;entryY=0;entryDx=0;entryDy=0;exitX=0.75;exitY=1;exitDx=0;exitDy=0;" edge="1" parent="1" source="lIA2qxOWrhkQfhuLzxUu-1" target="lIA2qxOWrhkQfhuLzxUu-26">
          <mxGeometry width="50" height="50" relative="1" as="geometry">
            <mxPoint x="400" y="320" as="sourcePoint" />
            <mxPoint x="450" y="270" as="targetPoint" />
          </mxGeometry>
        </mxCell>
        <mxCell id="lIA2qxOWrhkQfhuLzxUu-29" value="" style="endArrow=none;html=1;rounded=0;entryX=0.5;entryY=1;entryDx=0;entryDy=0;exitX=1;exitY=0;exitDx=0;exitDy=0;" edge="1" parent="1" source="lIA2qxOWrhkQfhuLzxUu-7" target="lIA2qxOWrhkQfhuLzxUu-1">
          <mxGeometry width="50" height="50" relative="1" as="geometry">
            <mxPoint x="400" y="320" as="sourcePoint" />
            <mxPoint x="450" y="270" as="targetPoint" />
          </mxGeometry>
        </mxCell>
        <mxCell id="lIA2qxOWrhkQfhuLzxUu-30" value="" style="endArrow=none;html=1;rounded=0;entryX=0.5;entryY=1;entryDx=0;entryDy=0;exitX=0.5;exitY=0;exitDx=0;exitDy=0;" edge="1" parent="1" source="lIA2qxOWrhkQfhuLzxUu-1" target="lIA2qxOWrhkQfhuLzxUu-10">
          <mxGeometry width="50" height="50" relative="1" as="geometry">
            <mxPoint x="400" y="320" as="sourcePoint" />
            <mxPoint x="450" y="270" as="targetPoint" />
          </mxGeometry>
        </mxCell>
        <mxCell id="lIA2qxOWrhkQfhuLzxUu-31" value="" style="endArrow=none;html=1;rounded=0;entryX=1;entryY=1;entryDx=0;entryDy=0;exitX=0.25;exitY=0;exitDx=0;exitDy=0;" edge="1" parent="1" source="lIA2qxOWrhkQfhuLzxUu-1" target="lIA2qxOWrhkQfhuLzxUu-9">
          <mxGeometry width="50" height="50" relative="1" as="geometry">
            <mxPoint x="400" y="320" as="sourcePoint" />
            <mxPoint x="450" y="270" as="targetPoint" />
          </mxGeometry>
        </mxCell>
        <mxCell id="lIA2qxOWrhkQfhuLzxUu-32" value="" style="endArrow=none;html=1;rounded=0;entryX=1;entryY=1;entryDx=0;entryDy=0;exitX=0;exitY=0.5;exitDx=0;exitDy=0;" edge="1" parent="1" source="lIA2qxOWrhkQfhuLzxUu-1" target="lIA2qxOWrhkQfhuLzxUu-8">
          <mxGeometry width="50" height="50" relative="1" as="geometry">
            <mxPoint x="400" y="320" as="sourcePoint" />
            <mxPoint x="450" y="270" as="targetPoint" />
          </mxGeometry>
        </mxCell>
        <mxCell id="lIA2qxOWrhkQfhuLzxUu-33" value="CRIMINALHISTORY" style="ellipse;whiteSpace=wrap;html=1;" vertex="1" parent="1">
          <mxGeometry x="540" y="400" width="110" height="50" as="geometry" />
        </mxCell>
        <mxCell id="lIA2qxOWrhkQfhuLzxUu-35" value="&lt;b&gt;CRIMEID&lt;/b&gt;" style="ellipse;whiteSpace=wrap;html=1;align=center;dashed=1;" vertex="1" parent="1">
          <mxGeometry x="435" y="410" width="100" height="40" as="geometry" />
        </mxCell>
        <mxCell id="lIA2qxOWrhkQfhuLzxUu-36" value="" style="endArrow=none;html=1;rounded=0;entryX=0.75;entryY=1;entryDx=0;entryDy=0;exitX=0;exitY=0;exitDx=0;exitDy=0;" edge="1" parent="1" source="lIA2qxOWrhkQfhuLzxUu-3" target="lIA2qxOWrhkQfhuLzxUu-2">
          <mxGeometry width="50" height="50" relative="1" as="geometry">
            <mxPoint x="400" y="320" as="sourcePoint" />
            <mxPoint x="450" y="270" as="targetPoint" />
          </mxGeometry>
        </mxCell>
        <mxCell id="lIA2qxOWrhkQfhuLzxUu-37" value="" style="endArrow=none;html=1;rounded=0;entryX=0.5;entryY=1;entryDx=0;entryDy=0;exitX=0.5;exitY=0;exitDx=0;exitDy=0;" edge="1" parent="1" source="lIA2qxOWrhkQfhuLzxUu-3" target="lIA2qxOWrhkQfhuLzxUu-5">
          <mxGeometry width="50" height="50" relative="1" as="geometry">
            <mxPoint x="400" y="320" as="sourcePoint" />
            <mxPoint x="450" y="270" as="targetPoint" />
          </mxGeometry>
        </mxCell>
        <mxCell id="lIA2qxOWrhkQfhuLzxUu-38" value="" style="endArrow=none;html=1;rounded=0;entryX=0;entryY=1;entryDx=0;entryDy=0;exitX=1;exitY=0;exitDx=0;exitDy=0;" edge="1" parent="1" source="lIA2qxOWrhkQfhuLzxUu-3" target="lIA2qxOWrhkQfhuLzxUu-4">
          <mxGeometry width="50" height="50" relative="1" as="geometry">
            <mxPoint x="400" y="320" as="sourcePoint" />
            <mxPoint x="450" y="270" as="targetPoint" />
          </mxGeometry>
        </mxCell>
        <mxCell id="lIA2qxOWrhkQfhuLzxUu-39" value="" style="endArrow=none;html=1;rounded=0;entryX=0;entryY=0.5;entryDx=0;entryDy=0;exitX=1;exitY=0.5;exitDx=0;exitDy=0;" edge="1" parent="1" source="lIA2qxOWrhkQfhuLzxUu-3" target="lIA2qxOWrhkQfhuLzxUu-6">
          <mxGeometry width="50" height="50" relative="1" as="geometry">
            <mxPoint x="400" y="320" as="sourcePoint" />
            <mxPoint x="450" y="270" as="targetPoint" />
          </mxGeometry>
        </mxCell>
        <mxCell id="lIA2qxOWrhkQfhuLzxUu-40" value="" style="endArrow=none;html=1;rounded=0;entryX=0;entryY=0;entryDx=0;entryDy=0;exitX=0.75;exitY=1;exitDx=0;exitDy=0;" edge="1" parent="1" source="lIA2qxOWrhkQfhuLzxUu-3" target="lIA2qxOWrhkQfhuLzxUu-33">
          <mxGeometry width="50" height="50" relative="1" as="geometry">
            <mxPoint x="530" y="390" as="sourcePoint" />
            <mxPoint x="450" y="270" as="targetPoint" />
          </mxGeometry>
        </mxCell>
        <mxCell id="lIA2qxOWrhkQfhuLzxUu-41" value="" style="endArrow=none;html=1;rounded=0;entryX=0.5;entryY=1;entryDx=0;entryDy=0;exitX=0.5;exitY=0;exitDx=0;exitDy=0;" edge="1" parent="1" source="lIA2qxOWrhkQfhuLzxUu-35" target="lIA2qxOWrhkQfhuLzxUu-3">
          <mxGeometry width="50" height="50" relative="1" as="geometry">
            <mxPoint x="400" y="320" as="sourcePoint" />
            <mxPoint x="450" y="270" as="targetPoint" />
          </mxGeometry>
        </mxCell>
        <mxCell id="lIA2qxOWrhkQfhuLzxUu-42" value="DATABASE: CMS&lt;br&gt;SHIVAM SINGH" style="rounded=0;whiteSpace=wrap;html=1;" vertex="1" parent="1">
          <mxGeometry x="340" y="490" width="110" height="40" as="geometry" />
        </mxCell>
      </root>
    </mxGraphModel>
  </diagram>
</mxfile>
